<?xml version="1.0" encoding="UTF-8"?>
<svg version="1.1" xmlns="http://www.w3.org/2000/svg" width="2048" height="2048">
<path d="M0 0 C1.0651537 0.00085589 2.13030741 0.00171178 3.2277385 0.00259361 C20.69821756 0.05474393 38.16657993 0.42349597 55.63386184 0.73627078 C61.19770725 0.83540409 66.76159756 0.93195765 72.32548231 1.02885294 C82.05559843 1.19865177 91.78568507 1.37006356 101.51575375 1.54255867 C115.98379701 1.79904137 130.45188421 2.05298871 144.919981 2.30643021 C169.26284609 2.73288243 193.60567363 3.16144653 217.94848156 3.59114838 C242.03999999 4.01640818 266.13153425 4.44075321 290.22309017 4.86388397 C290.97253974 4.8770473 291.7219893 4.89021063 292.49414946 4.90377285 C299.33967401 5.02400715 306.18519875 5.14423026 313.03072372 5.26443993 C330.04447404 5.56320714 347.0582219 5.86211466 364.07196808 6.16111755 C364.84655579 6.1747302 365.62114351 6.18834284 366.41920357 6.20236799 C404.05667268 6.86382299 441.69411328 7.52689492 479.33155155 8.19010162 C492.38514016 8.42011711 505.4387289 8.65012542 518.49231815 8.88010406 C519.3019533 8.89436826 520.11158844 8.90863245 520.94575798 8.92332889 C558.61589712 9.58699337 596.28605649 10.24950579 633.9562211 10.91172289 C636.40317171 10.95473871 638.85012232 10.99775504 641.29707293 11.04077146 C657.51376424 11.32585369 673.7304559 11.61091611 689.9471478 11.89596526 C722.21162495 12.46309477 754.47610006 13.03034068 786.74057376 13.59766661 C788.27693357 13.62468136 789.81329338 13.65169603 791.3496532 13.67871062 C838.65271584 14.51046465 885.95576922 15.34274373 933.2588129 16.17557526 C934.59300259 16.19906519 935.92719227 16.22255512 937.26138196 16.24604505 C990.75360897 17.1878447 1044.24582609 18.13020584 1097.73804569 19.07242584 C1097.73804569 119.72242584 1097.73804569 220.37242584 1097.73804569 324.07242584 C831.09804569 324.07242584 564.45804569 324.07242584 289.73804569 324.07242584 C288.74804569 327.04242584 287.75804569 330.01242584 286.73804569 333.07242584 C286.06314638 334.8059303 285.3660899 336.53118178 284.63526249 338.24185944 C284.24512974 339.1597525 283.85499699 340.07764557 283.45304203 341.02335358 C283.03533543 341.9960318 282.61762882 342.96871002 282.18726444 343.97086334 C281.74119846 345.01717926 281.29513248 346.06349518 280.83554935 347.14151764 C279.369117 350.57835715 277.89744518 354.0129246 276.42554569 357.44742584 C275.38749635 359.87653638 274.34965795 362.30573707 273.3120203 364.7350235 C265.61135712 382.75427799 257.85553934 400.74980458 250.08252811 418.73795319 C243.77937402 433.32619724 237.50683925 447.92730867 231.25205326 462.53635406 C223.16291716 481.42910366 215.06814765 500.31945299 206.94117069 519.195961 C205.98266069 521.42314402 205.02496038 523.65067571 204.06812382 525.87857819 C202.74682046 528.95459116 201.42251829 532.02929583 200.09742069 535.10367584 C199.52093784 536.44818817 199.52093784 536.44818817 198.93280888 537.81986237 C196.33586248 543.8324657 193.49895655 549.67714281 190.48438358 555.48966217 C186.9473546 562.33555036 184.01491936 569.41125802 181.09061527 576.53250885 C179.47939859 580.4544526 177.85501828 584.37093131 176.23023319 588.28726959 C175.70669003 589.54967972 175.70669003 589.54967972 175.17257023 590.83759308 C167.4980019 609.30636347 159.58477235 627.67633621 151.73804569 646.07242584 C201.92374024 646.81549075 252.11072385 647.23272842 302.30054772 647.55700159 C305.47885867 647.57757522 308.65716857 647.59830974 311.83547844 647.61905032 C338.88994637 647.79559004 365.94443844 647.96856501 392.99897099 648.13492584 C393.83772986 648.14008351 394.67648874 648.14524117 395.54066455 648.15055513 C397.23532278 648.1609736 398.92998102 648.1713917 400.62463926 648.18180943 C401.46289346 648.18696284 402.30114766 648.19211626 403.1648035 648.19742584 C404.00197868 648.20257171 404.83915385 648.20771757 405.70169796 648.21301937 C419.65774859 648.29889872 433.61377304 648.38841702 447.56978118 648.48094177 C456.09859776 648.53734106 464.62742228 648.59071983 473.15628271 648.64005375 C478.9486063 648.67379529 484.74090166 648.71093898 490.53318651 648.75077724 C493.86428158 648.77357681 497.19535565 648.79431423 500.52648449 648.8119278 C504.13644734 648.83124533 507.74632471 648.85638584 511.35624027 648.88297272 C512.40148778 648.88715965 513.44673529 648.89134659 514.52365696 648.8956604 C520.00022853 648.94265424 525.35496066 649.00695501 530.73804569 650.07242584 C533.24128179 653.82727999 533.07218658 655.61190563 532.73804569 660.07242584 C531.99507013 662.56942376 531.20852645 664.85118257 530.23023319 667.24820709 C529.95753605 667.9450914 529.68483891 668.64197571 529.40387821 669.35997772 C528.80327225 670.89132302 528.19732337 672.42058087 527.58673954 673.94797516 C526.22727308 677.35043346 524.89508449 680.76338793 523.56089115 684.1758194 C522.82308387 686.06246463 522.08396774 687.94859844 521.34366703 689.83426666 C516.89640109 701.17582479 512.58760475 712.56968436 508.27610111 723.96338654 C506.85326823 727.72326306 505.42882217 731.48252467 504.00391483 735.2416153 C497.99711402 751.0905052 492.00561216 766.94516138 486.0201807 782.80213165 C479.76008479 799.38570593 473.46798648 815.95701119 467.16822147 832.52555084 C461.54074512 847.32621963 455.92023684 862.12951535 450.30521488 876.93491364 C448.9308274 880.55850057 447.55603637 884.18193418 446.18116093 887.805336 C441.82721625 899.28127893 437.4770636 910.7586182 433.13796329 922.24018097 C431.36431132 926.93327307 429.58896999 931.62572557 427.81324387 936.31803322 C426.60179822 939.51964199 425.39133562 942.72161507 424.1832056 945.92447662 C422.8470519 949.46556709 421.5077209 953.00544101 420.16773319 956.54508209 C419.77704151 957.58306442 419.38634983 958.62104675 418.98381901 959.69048309 C411.76655352 978.72008729 411.76655352 978.72008729 403.73804569 984.07242584 C400.81987458 984.32723486 400.81987458 984.32723486 397.16880608 984.33413887 C396.49506019 984.33813493 395.8213143 984.34213099 395.12715188 984.34624815 C392.85323704 984.35727989 390.57956322 984.35401313 388.30562687 984.35089874 C386.66548914 984.35589835 385.02535389 984.36177316 383.38522214 984.36845148 C378.86556286 984.38430604 374.34596564 984.38768514 369.82628191 984.38910007 C364.95715036 984.39278463 360.08805324 984.40793533 355.21894169 984.42171478 C346.77865615 984.44402121 338.33838281 984.45901412 329.89807415 984.46908188 C317.69471102 984.48364879 305.49139036 984.50917997 293.2880521 984.53741316 C273.49038867 984.58291738 253.69271913 984.61951716 233.89502811 984.65055084 C214.65999117 984.68072154 195.42496916 984.71506498 176.18994999 984.75504303 C175.00490092 984.75750458 173.81985184 984.75996613 172.59889219 984.76250227 C166.65402766 984.77487658 160.70916331 984.78733317 154.76429904 984.79983068 C105.42223543 984.9034528 56.08015319 984.9926381 6.73804569 985.07242584 C4.97831905 989.13092249 3.21884202 993.18952725 1.45957756 997.24822426 C0.86342236 998.62348914 0.26720372 999.99872653 -0.3290844 1001.37393379 C-5.19423139 1012.5945057 -10.03167711 1023.82666202 -14.8431921 1035.07035065 C-16.14434315 1038.11073424 -17.44646953 1041.15069879 -18.74877071 1044.1905899 C-23.05473714 1054.24258819 -27.35774917 1064.29584809 -31.65865231 1074.35001373 C-34.15047893 1080.17455392 -36.64340269 1085.99862395 -39.13695431 1091.82242584 C-39.88785336 1093.5762558 -39.88785336 1093.5762558 -40.65392208 1095.36551666 C-48.46057404 1113.59314997 -56.33832818 1131.78902068 -64.24898434 1149.97171783 C-72.14270184 1168.12159646 -79.92830201 1186.31587732 -87.66939449 1204.53131866 C-93.53498281 1218.33353483 -99.41967539 1232.1263442 -105.38695431 1245.88492584 C-111.42476525 1259.80634883 -117.41557417 1273.74737664 -123.38695431 1287.69742584 C-130.77649016 1304.95919019 -138.19427025 1322.20851076 -145.63695431 1339.44742584 C-151.6511377 1353.37886581 -157.6634067 1367.31100496 -163.63695431 1381.25992584 C-164.06346279 1382.25583237 -164.06346279 1382.25583237 -164.49858761 1383.27185822 C-166.0298303 1386.84777919 -167.56054509 1390.42392593 -169.09105587 1394.00016022 C-181.3043821 1422.53763255 -193.51788317 1451.0750104 -205.82445431 1479.57242584 C-206.20782955 1480.4604187 -206.5912048 1481.34841156 -206.98619747 1482.26331329 C-209.08290697 1487.11874026 -211.1829167 1491.97271661 -213.28761959 1496.82468414 C-213.94159022 1498.33336183 -214.59463401 1499.84244158 -215.24678707 1501.35190582 C-216.18708034 1503.52796334 -217.13040927 1505.70268133 -218.07445431 1507.87711334 C-218.48353779 1508.82644745 -218.48353779 1508.82644745 -218.90088558 1509.79496002 C-223.40940928 1520.1491745 -227.89453607 1528.98199144 -238.39873147 1534.11699498 C-241.97592349 1535.31067072 -245.33569746 1535.40530951 -249.06570721 1535.44525719 C-249.84978975 1535.46128498 -250.6338723 1535.47731278 -251.44171493 1535.49382626 C-254.08294481 1535.54546255 -256.72419523 1535.58340131 -259.36565304 1535.62146759 C-261.27885829 1535.65602009 -263.19204854 1535.6914114 -265.10522413 1535.72756886 C-270.39115967 1535.82500635 -275.677233 1535.91043174 -280.96340376 1535.99398413 C-286.70702743 1536.08684837 -292.45045327 1536.19073156 -298.19391155 1536.29323387 C-308.23886609 1536.47097197 -318.28392227 1536.64157817 -328.32907772 1536.80755615 C-338.95563405 1536.98316407 -349.58210847 1537.1628802 -360.20850277 1537.34803772 C-361.20430764 1537.36538458 -361.20430764 1537.36538458 -362.22022978 1537.38308189 C-364.92194587 1537.43015958 -367.62366145 1537.47726661 -370.32537639 1537.52441064 C-403.46175914 1538.10259431 -436.5984721 1538.66060968 -469.73526122 1539.21493674 C-481.04161007 1539.40408803 -492.3479485 1539.59385371 -503.65428066 1539.7840004 C-504.87858033 1539.80458938 -504.87858033 1539.80458938 -506.12761333 1539.8255943 C-509.44347776 1539.88135797 -512.75934214 1539.93712441 -516.07520645 1539.99289482 C-546.79744662 1540.50961462 -577.51971126 1541.02486508 -608.24198894 1541.53934949 C-635.45422925 1541.99506181 -662.66644964 1542.45194598 -689.87865353 1542.90982819 C-696.90578995 1543.02806797 -703.93292638 1543.146307 -710.96006298 1543.2645359 C-711.82561832 1543.27909861 -712.69117366 1543.29366132 -713.58295795 1543.30866532 C-736.50243302 1543.69426238 -759.4219227 1544.07898927 -782.34141707 1544.46343696 C-784.80382503 1544.50474172 -787.26623299 1544.54604663 -789.72864094 1544.58735185 C-791.36128305 1544.61473812 -792.99392516 1544.6421237 -794.62656729 1544.66950859 C-805.96760802 1544.85974293 -817.30864306 1545.05031378 -828.64967419 1545.24111954 C-843.19787831 1545.48588327 -857.74609225 1545.73004902 -872.29432425 1545.97315015 C-879.97103745 1546.10144563 -887.64774185 1546.23024245 -895.32443434 1546.35977146 C-901.0542152 1546.45639237 -906.78401189 1546.55204596 -912.51381525 1546.6473224 C-914.8292265 1546.68597209 -917.1446326 1546.72493232 -919.46003285 1546.76423515 C-922.60794295 1546.81762234 -925.75587003 1546.86987016 -928.90380383 1546.92183876 C-930.24817297 1546.9450464 -930.24817297 1546.9450464 -931.61970109 1546.96872288 C-937.83641922 1547.06966803 -944.04222421 1547.07242584 -950.26195431 1547.07242584 C-950.26195431 1393.95242584 -950.26195431 1240.83242584 -950.26195431 1083.07242584 C-896.52332348 1083.07242584 -896.52332348 1083.07242584 -870.48699093 1083.19934845 C-868.52476919 1083.2086329 -866.5625474 1083.21790862 -864.60032558 1083.22717667 C-863.6078938 1083.23190727 -862.61546202 1083.23663787 -861.59295654 1083.24151182 C-856.24932904 1083.26676987 -850.90569616 1083.29084658 -845.56206417 1083.31513214 C-835.24448324 1083.36224195 -824.92690858 1083.41060779 -814.60933602 1083.45951295 C-806.27049107 1083.4990255 -797.9316439 1083.5380389 -789.59279537 1083.57678986 C-696.48214058 1084.00992793 -603.37196684 1084.51914567 -510.26195431 1085.07242584 C-509.94915492 1084.12500865 -509.63635553 1083.17759146 -509.31407738 1082.20146465 C-508.49656215 1079.7701551 -507.63133277 1077.46559961 -506.59227657 1075.12638092 C-506.11275288 1074.04131004 -506.11275288 1074.04131004 -505.62354183 1072.93431854 C-505.27863201 1072.16133926 -504.93372219 1071.38835999 -504.57836056 1070.59195709 C-504.02794346 1069.34940407 -504.02794346 1069.34940407 -503.46640682 1068.08174896 C-502.25493194 1065.34835391 -501.03966326 1062.61666259 -499.82445431 1059.88492584 C-498.96739353 1057.95276276 -498.11062767 1056.02046884 -497.25414181 1054.08805084 C-495.47419817 1050.07273111 -493.69298533 1046.05797804 -491.91088009 1042.04361725 C-488.24108724 1033.77450671 -484.58671403 1025.49859416 -480.93233395 1017.22266388 C-478.95961596 1012.75559006 -476.98572121 1008.28903627 -475.01195431 1003.82242584 C-474.2202821 1002.03076162 -473.42861543 1000.23909496 -472.63695431 998.44742584 C-471.05362097 994.86409251 -469.47028764 991.28075918 -467.88695431 987.69742584 C-467.29914936 986.36712845 -467.29914936 986.36712845 -466.69946957 985.00995636 C-465.907756 983.21818622 -465.11603847 981.42641783 -464.32431698 979.63465118 C-462.34583549 975.15708201 -460.36742267 970.67948251 -458.38915157 966.20182037 C-454.81854873 958.12022108 -451.24744734 950.038844 -447.67378902 941.95859528 C-439.51312558 923.50675329 -431.36580688 905.04929834 -423.26195431 886.57242584 C-417.1360333 872.60525893 -410.99088433 858.64675784 -404.82445431 844.69742584 C-404.43113918 843.80767059 -404.03782406 842.91791534 -403.63259029 842.00119781 C-400.44396646 834.78846721 -397.25404868 827.57630904 -394.06407833 820.36417389 C-391.27526539 814.05885857 -388.48701581 807.75329451 -385.69945431 801.44742584 C-385.30705563 800.55983582 -384.91465694 799.67224579 -384.51036739 798.75775909 C-378.29728833 784.7019697 -372.11525212 770.63274367 -365.94478512 756.55820465 C-360.42742564 743.97580399 -354.86816891 731.41273858 -349.27760983 718.86270905 C-343.98143286 706.97126501 -338.73604522 695.0581985 -333.51195431 683.13492584 C-327.14067926 668.59372005 -320.71928188 654.07561688 -314.26195431 639.57242584 C-307.86953255 625.21404656 -301.50892347 610.84245797 -295.19945431 596.44742584 C-289.0954082 582.52144352 -282.97272426 568.60394617 -276.82445431 554.69742584 C-276.43071621 553.80682465 -276.03697811 552.91622345 -275.63130856 551.99863434 C-273.63885699 547.49217635 -271.64604299 542.98587875 -269.65306759 538.4796524 C-267.27030528 533.09178716 -264.88895308 527.70329954 -262.50804806 522.31461334 C-262.11637447 521.42814117 -261.72470089 520.54166901 -261.32115841 519.62833405 C-260.13473327 516.94304181 -258.94833784 514.25773646 -257.76195431 511.57242584 C-253.40051847 501.70056772 -249.03906201 491.82872012 -244.67377377 481.95856476 C-242.68199401 477.45500207 -240.69061678 472.95126148 -238.69945431 468.44742584 C-238.30563564 467.55666351 -237.91181698 466.66590118 -237.50606441 465.74814606 C-231.38373877 451.89792673 -225.29333893 438.03391897 -219.21431637 424.16464996 C-212.85575629 409.66183868 -206.43317044 395.18807892 -199.99272823 380.72147369 C-194.02431449 367.31302192 -188.09131688 353.88968998 -182.19945431 340.44742584 C-176.09540799 326.52144303 -169.9725873 312.604007 -163.82445431 298.69742584 C-163.43104855 297.80748932 -163.03764278 296.9175528 -162.63231564 296.0006485 C-159.44378238 288.78810142 -156.25396597 281.57612204 -153.06407833 274.36417389 C-150.27526539 268.05885857 -147.48701581 261.75329451 -144.69945431 255.44742584 C-144.30705563 254.55983582 -143.91465694 253.67224579 -143.51036739 252.75775909 C-137.29728833 238.7019697 -131.11525212 224.63274367 -124.94478512 210.55820465 C-119.42742564 197.97580399 -113.86816891 185.41273858 -108.27760983 172.86270905 C-102.98143286 160.97126501 -97.73604522 149.0581985 -92.51195431 137.13492584 C-85.72655623 121.64856414 -78.88087338 106.1898716 -72.00261593 90.74454498 C-66.22569276 77.7705255 -60.48890634 64.77974268 -54.79213619 51.77033234 C-53.65424306 49.17436803 -52.51371975 46.57957819 -51.37206173 43.98526764 C-51.00988049 43.16217606 -50.64769924 42.33908447 -50.27454281 41.49105072 C-49.56933911 39.88848308 -48.86404962 38.28595319 -48.15866756 36.68346405 C-46.13469804 32.07901676 -44.1402416 27.46330049 -42.16429806 22.83805084 C-41.30139994 20.85350921 -40.43815887 18.86911663 -39.57445431 16.88492584 C-39.0502087 15.62144318 -39.0502087 15.62144318 -38.51537228 14.33243561 C-36.17089897 9.01367258 -33.25884045 5.17833756 -28.26195431 2.07242584 C-19.39441531 -0.67499543 -9.20645309 -0.00924449 0 0 Z " fill="#FFFFFF" transform="translate(950.2619543075562,264.92757415771484)"/>
</svg>
